<?xml version="1.0" encoding="UTF-8" standalone="no"?> <svg width="48" height="48" viewBox="0 0 48 48" fill="none" xmlns="http://www.w3.org/2000/svg">
<path d="M39 35H9C7.89543 35 7 35.8954 7 37V43C7 44.1046 7.89543 45 9 45H39C40.1046 45 41 44.1046 41 43V37C41 35.8954 40.1046 35 39 35Z" fill="#009AE0"/>
<path d="M7 40V43C7 43.5304 7.21071 44.0391 7.58579 44.4142C7.96086 44.7893 8.46957 45 9 45H39C39.5304 45 40.0391 44.7893 40.4142 44.4142C40.7893 44.0391 41 43.5304 41 43V40H7Z" fill="#0081BD"/>
<path d="M39 25H9C7.89543 25 7 25.8954 7 27V33C7 34.1046 7.89543 35 9 35H39C40.1046 35 41 34.1046 41 33V27C41 25.8954 40.1046 25 39 25Z" fill="#00CF66"/>
<path d="M7 30V33C7 33.5304 7.21071 34.0391 7.58579 34.4142C7.96086 34.7893 8.46957 35 9 35H39C39.5304 35 40.0391 34.7893 40.4142 34.4142C40.7893 34.0391 41 33.5304 41 33V30H7Z" fill="#00B157"/>
<path d="M13 13.1426V23.0686C12.9998 23.8805 13.2468 24.6733 13.708 25.3415C14.1692 26.0097 14.8228 26.5217 15.582 26.8096V26.8096C21.0059 28.8646 26.9941 28.8646 32.418 26.8096V26.8096C33.1772 26.5217 33.8308 26.0097 34.292 25.3415C34.7532 24.6733 35.0002 23.8805 35 23.0686V13.1426H13Z" fill="#263F52"/>
<path d="M5.66203 9.61881L22.831 2.35481C23.2009 2.19831 23.5984 2.11768 24 2.11768C24.4016 2.11768 24.7992 2.19831 25.169 2.35481L42.338 9.61881C42.6092 9.73379 42.8405 9.92606 43.0032 10.1716C43.1658 10.4172 43.2525 10.7053 43.2525 10.9998C43.2525 11.2944 43.1658 11.5824 43.0032 11.828C42.8405 12.0736 42.6092 12.2658 42.338 12.3808L25.169 19.6448C24.7992 19.8013 24.4016 19.8819 24 19.8819C23.5984 19.8819 23.2009 19.8013 22.831 19.6448L5.66203 12.3808C5.39085 12.2658 5.15952 12.0736 4.9969 11.828C4.83428 11.5824 4.74756 11.2944 4.74756 10.9998C4.74756 10.7053 4.83428 10.4172 4.9969 10.1716C5.15952 9.92606 5.39085 9.73379 5.66203 9.61881Z" fill="#2D4A60"/>
<path d="M13 37.4409C12.7348 37.4409 12.4804 37.5463 12.2929 37.7338C12.1054 37.9213 12 38.1757 12 38.4409V42.4409C12 42.7061 12.1054 42.9605 12.2929 43.148C12.4804 43.3356 12.7348 43.4409 13 43.4409C13.2652 43.4409 13.5196 43.3356 13.7071 43.148C13.8946 42.9605 14 42.7061 14 42.4409V38.4409C14 38.1757 13.8946 37.9213 13.7071 37.7338C13.5196 37.5463 13.2652 37.4409 13 37.4409Z" fill="black"/>
<path d="M35 37.4409C34.7348 37.4409 34.4804 37.5463 34.2929 37.7338C34.1054 37.9213 34 38.1757 34 38.4409V42.4409C34 42.7061 34.1054 42.9605 34.2929 43.148C34.4804 43.3356 34.7348 43.4409 35 43.4409C35.2652 43.4409 35.5196 43.3356 35.7071 43.148C35.8946 42.9605 36 42.7061 36 42.4409V38.4409C36 38.1757 35.8946 37.9213 35.7071 37.7338C35.5196 37.5463 35.2652 37.4409 35 37.4409Z" fill="black"/>
<path d="M13 27.4409C12.7348 27.4409 12.4804 27.5463 12.2929 27.7338C12.1054 27.9213 12 28.1757 12 28.4409V32.4409C12 32.7061 12.1054 32.9605 12.2929 33.148C12.4804 33.3356 12.7348 33.4409 13 33.4409C13.2652 33.4409 13.5196 33.3356 13.7071 33.148C13.8946 32.9605 14 32.7061 14 32.4409V28.4409C14 28.1757 13.8946 27.9213 13.7071 27.7338C13.5196 27.5463 13.2652 27.4409 13 27.4409V27.4409Z" fill="black"/>
<path d="M34 28.4409V32.4409C34 32.7061 34.1054 32.9605 34.2929 33.148C34.4804 33.3356 34.7348 33.4409 35 33.4409C35.2652 33.4409 35.5196 33.3356 35.7071 33.148C35.8946 32.9605 36 32.7061 36 32.4409V28.4409C36 28.1757 35.8946 27.9213 35.7071 27.7338C35.5196 27.5463 35.2652 27.4409 35 27.4409C34.7348 27.4409 34.4804 27.5463 34.2929 27.7338C34.1054 27.9213 34 28.1757 34 28.4409V28.4409Z" fill="black"/>
<path d="M42.7282 9.13882L25.5592 1.87482C25.0656 1.66739 24.5356 1.56055 24.0002 1.56055C23.4648 1.56055 22.9348 1.66739 22.4412 1.87482L5.27219 9.13882C4.81972 9.3302 4.43367 9.65065 4.16226 10.0602C3.89084 10.4696 3.74609 10.95 3.74609 11.4413C3.74609 11.9326 3.89084 12.413 4.16226 12.8225C4.43367 13.232 4.81972 13.5524 5.27219 13.7438L12.0002 16.5898V23.0688C12.0016 23.5333 12.0689 23.9953 12.2002 24.4408H9.00019C8.20454 24.4408 7.44148 24.7569 6.87887 25.3195C6.31626 25.8821 6.00019 26.6452 6.00019 27.4408V33.4408C6.0026 34.1813 6.28067 34.8943 6.78019 35.4408C6.28084 35.9875 6.00279 36.7004 6.00019 37.4408V43.4408C6.00019 44.2365 6.31626 44.9995 6.87887 45.5621C7.44148 46.1247 8.20454 46.4408 9.00019 46.4408H39.0002C39.7958 46.4408 40.5589 46.1247 41.1215 45.5621C41.6841 44.9995 42.0002 44.2365 42.0002 43.4408V37.4408C41.9976 36.7004 41.7195 35.9875 41.2202 35.4408C41.7197 34.8943 41.9978 34.1813 42.0002 33.4408V27.4408C42.0002 26.6452 41.6841 25.8821 41.1215 25.3195C40.5589 24.7569 39.7958 24.4408 39.0002 24.4408H35.8002C35.9314 23.9953 35.9988 23.5333 36.0002 23.0688V16.5898L38.0002 15.7438V21.4438C38.0002 21.709 38.1055 21.9634 38.2931 22.1509C38.4806 22.3385 38.735 22.4438 39.0002 22.4438C39.2654 22.4438 39.5198 22.3385 39.7073 22.1509C39.8948 21.9634 40.0002 21.709 40.0002 21.4438V14.8998L42.7282 13.7458C43.1807 13.5544 43.5667 13.234 43.8381 12.8245C44.1095 12.415 44.2543 11.9346 44.2543 11.4433C44.2543 10.952 44.1095 10.4716 43.8381 10.0622C43.5667 9.65265 43.1807 9.3322 42.7282 9.14082V9.13882ZM40.0002 43.4408C40.0002 43.706 39.8948 43.9604 39.7073 44.1479C39.5198 44.3355 39.2654 44.4408 39.0002 44.4408H9.00019C8.73497 44.4408 8.48062 44.3355 8.29308 44.1479C8.10554 43.9604 8.00019 43.706 8.00019 43.4408V37.4408C8.00019 37.1756 8.10554 36.9212 8.29308 36.7337C8.48062 36.5462 8.73497 36.4408 9.00019 36.4408H39.0002C39.2654 36.4408 39.5198 36.5462 39.7073 36.7337C39.8948 36.9212 40.0002 37.1756 40.0002 37.4408V43.4408ZM39.0002 26.4408C39.2654 26.4408 39.5198 26.5462 39.7073 26.7337C39.8948 26.9212 40.0002 27.1756 40.0002 27.4408V33.4408C40.0002 33.706 39.8948 33.9604 39.7073 34.1479C39.5198 34.3355 39.2654 34.4408 39.0002 34.4408H9.00019C8.73497 34.4408 8.48062 34.3355 8.29308 34.1479C8.10554 33.9604 8.00019 33.706 8.00019 33.4408V27.4408C8.00019 27.1756 8.10554 26.9212 8.29308 26.7337C8.48062 26.5462 8.73497 26.4408 9.00019 26.4408H13.3202C13.8452 27.0181 14.4989 27.4635 15.2282 27.7408C20.8797 29.8848 27.1207 29.8848 32.7722 27.7408C33.5015 27.4635 34.1552 27.0181 34.6802 26.4408H39.0002ZM34.0002 23.0688C33.9981 23.6773 33.812 24.271 33.4663 24.7718C33.1206 25.2726 32.6314 25.6571 32.0632 25.8748C26.8684 27.8449 21.132 27.8449 15.9372 25.8748C15.3689 25.6571 14.8798 25.2726 14.5341 24.7718C14.1884 24.271 14.0023 23.6773 14.0002 23.0688V17.4358L22.4412 21.0068C22.9346 21.2147 23.4647 21.3219 24.0002 21.3219C24.5357 21.3219 25.0657 21.2147 25.5592 21.0068L34.0002 17.4358V23.0688ZM41.9482 11.8998L24.7792 19.1658C24.5324 19.2688 24.2676 19.3218 24.0002 19.3218C23.7328 19.3218 23.468 19.2688 23.2212 19.1658L6.05219 11.8998C5.96139 11.8617 5.88388 11.7976 5.82937 11.7156C5.77486 11.6336 5.74578 11.5373 5.74578 11.4388C5.74578 11.3403 5.77486 11.2441 5.82937 11.162C5.88388 11.08 5.96139 11.0159 6.05219 10.9778L23.2212 3.71682C23.4679 3.61335 23.7327 3.56006 24.0002 3.56006C24.2677 3.56006 24.5325 3.61335 24.7792 3.71682L41.9482 10.9798C42.039 11.0179 42.1165 11.082 42.171 11.164C42.2255 11.2461 42.2546 11.3423 42.2546 11.4408C42.2546 11.5393 42.2255 11.6356 42.171 11.7176C42.1165 11.7996 42.039 11.8637 41.9482 11.9018V11.8998Z" fill="black"/>
</svg>
