<?xml version="1.0" encoding="UTF-8" standalone="no"?> <svg width="512" height="512" viewBox="0 0 512 512" fill="none" xmlns="http://www.w3.org/2000/svg">
<path d="M32 128C32 74.9807 74.9807 32 128 32H384C437.019 32 480 74.9807 480 128V384C480 437.019 437.019 480 384 480H128C74.9807 480 32 437.019 32 384V128Z" fill="#f24a38"/>
<path d="M32 112C32 67.8172 67.8172 32 112 32H368C412.183 32 448 67.8172 448 112V368C448 412.183 412.183 448 368 448H112C67.8172 448 32 412.183 32 368V112Z" fill="#f24a38"/>
<path fill-rule="evenodd" clip-rule="evenodd" d="M24 128C24 70.5624 70.5624 24 128 24H384C441.438 24 488 70.5624 488 128V384C488 441.438 441.438 488 384 488H128C70.5624 488 24 441.438 24 384V128ZM128 40C79.3989 40 40 79.3989 40 128V384C40 432.601 79.3989 472 128 472H384C432.601 472 472 432.601 472 384V128C472 79.3989 432.601 40 384 40H128Z" fill="#1D1D1D"/>
<path fill-rule="evenodd" clip-rule="evenodd" d="M147.999 112.001C156.836 105.374 169.372 107.165 175.999 116.001L255.999 222.668L335.999 116.001C342.627 107.165 355.163 105.374 363.999 112.001C372.836 118.629 374.627 131.165 367.999 140.001L280.999 256.001L367.999 372.001C374.627 380.838 372.836 393.374 363.999 400.001C355.163 406.629 342.627 404.838 335.999 396.001L255.999 289.335L175.999 396.001C169.372 404.838 156.836 406.629 147.999 400.001C139.163 393.374 137.372 380.838 143.999 372.001L230.999 256.001L143.999 140.001C137.372 131.165 139.163 118.629 147.999 112.001Z" fill="white"/>
<path fill-rule="evenodd" clip-rule="evenodd" d="M143.2 105.602C155.571 96.3233 173.121 98.8305 182.4 111.202L256 209.335L329.6 111.202C338.878 98.8305 356.429 96.3233 368.8 105.602C381.171 114.88 383.678 132.43 374.4 144.802L291 256.002L374.4 367.202C383.678 379.573 381.171 397.123 368.8 406.402C356.429 415.68 338.878 413.173 329.6 400.802L256 302.668L182.4 400.802C173.121 413.173 155.571 415.68 143.2 406.402C130.829 397.123 128.321 379.573 137.6 367.202L221 256.002L137.6 144.802C128.321 132.43 130.829 114.88 143.2 105.602ZM169.6 120.802C165.623 115.5 158.102 114.425 152.8 118.402C147.498 122.378 146.423 129.9 150.4 135.202L237.4 251.202C239.533 254.046 239.533 257.957 237.4 260.802L150.4 376.802C146.423 382.104 147.498 389.625 152.8 393.602C158.102 397.578 165.623 396.504 169.6 391.202L249.6 284.535C251.111 282.521 253.482 281.335 256 281.335C258.518 281.335 260.889 282.521 262.4 284.535L342.4 391.202C346.376 396.504 353.898 397.578 359.2 393.602C364.502 389.625 365.576 382.104 361.6 376.802L274.6 260.802C272.466 257.957 272.466 254.046 274.6 251.202L361.6 135.202C365.576 129.9 364.502 122.378 359.2 118.402C353.898 114.425 346.376 115.5 342.4 120.802L336 116.002L342.4 120.802L262.4 227.468C260.889 229.483 258.518 230.668 256 230.668C253.482 230.668 251.111 229.483 249.6 227.468L169.6 120.802Z" fill="#1D1D1D"/>
</svg>
